<?xml version="1.0" encoding="UTF-8"?>
<svg version="1.1" xmlns="http://www.w3.org/2000/svg" width="413" height="117">
<path d="M0 0 C25 0 25 0 31.875 6.125 C33.45874023 8.18212891 33.45874023 8.18212891 34.49609375 9.9765625 C37.00960628 14.08958301 39.90804834 17.75857141 42.9375 21.5 C44.214717 23.14132969 45.48455007 24.78762938 46.74560547 26.44140625 C47.99037014 28.03354105 47.99037014 28.03354105 49.46142578 29.52734375 C51.81144535 32.02064732 52.98608495 33.39592325 53.06640625 36.8828125 C51.72746423 40.79664302 49.95654816 44.27487509 47.9375 47.875 C46.638125 50.22625 45.33875 52.5775 44 55 C49.61 55 55.22 55 61 55 C60.1775148 59.11242601 59.18832018 62.40328488 57.625 66.25 C57.20476562 67.30703125 56.78453125 68.3640625 56.3515625 69.453125 C55 72 55 72 52 73 C51.03513672 71.7625 51.03513672 71.7625 50.05078125 70.5 C42.80547027 61.23923162 35.41791137 52.12973707 28 43 C27.67 60.82 27.34 78.64 27 97 C18.09 97 9.18 97 0 97 C0 64.99 0 32.98 0 0 Z " fill="#0C2642" transform="translate(11,9)"/>
<path d="M0 0 C8.58 0 17.16 0 26 0 C24.33313039 4.16717403 22.45776112 7.75896289 20.12109375 11.54296875 C19.74896255 12.15263992 19.37683136 12.7623111 18.99342346 13.39045715 C17.81169251 15.32502021 16.62480453 17.25635364 15.4375 19.1875 C14.2476864 21.12998905 13.05894308 23.07312696 11.87086487 25.01667786 C11.13312213 26.22274958 10.39417953 27.42808835 9.65391541 28.63261414 C8.36845533 30.72853745 7.10017903 32.79964193 6 35 C11.94 35 17.88 35 24 35 C22.16588406 38.66823187 20.26052279 41.40787311 17.75 44.625 C17.31743896 45.18131104 16.88487793 45.73762207 16.43920898 46.31079102 C15.4822426 47.5408417 14.52374964 48.7697058 13.56396484 49.99755859 C11.9093391 52.11607878 10.26077597 54.23921149 8.61328125 56.36328125 C3.18091593 63.3637753 -2.26782276 70.35094255 -7.75 77.3125 C-16.67742273 88.43678648 -16.67742273 88.43678648 -25 100 C-25.66 100 -26.32 100 -27 100 C-25.11236244 93.4741474 -23.01812632 87.07530139 -20.64453125 80.7109375 C-20.33803146 79.88163727 -20.03153168 79.05233704 -19.71574402 78.19790649 C-18.75085873 75.58920019 -17.78176277 72.98208258 -16.8125 70.375 C-16.15141159 68.58994784 -15.49060188 66.80479243 -14.83007812 65.01953125 C-13.22377827 60.67828923 -11.61177412 56.33922809 -10 52 C-15.61 52 -21.22 52 -27 52 C-25.57652341 48.44130853 -24.13825107 45.1953629 -22.3828125 41.81640625 C-21.86356201 40.81601318 -21.34431152 39.81562012 -20.80932617 38.78491211 C-20.25349854 37.72151611 -19.6976709 36.65812012 -19.125 35.5625 C-18.55434814 34.46752197 -17.98369629 33.37254395 -17.39575195 32.24438477 C-11.73391191 21.41998099 -5.88420002 10.7049904 0 0 Z " fill="#F05B23" transform="translate(87,9)"/>
<path d="M0 0 C10 0 10 0 12.78759766 2.47851562 C13.53235678 3.59800064 14.24009046 4.7427748 14.9140625 5.90625 C15.4921315 6.80518982 15.4921315 6.80518982 16.08187866 7.72229004 C17.29728804 9.62894352 18.46058431 11.56187657 19.625 13.5 C20.44335863 14.80283212 21.2649446 16.10364295 22.08984375 17.40234375 C24.09800763 20.57938175 26.06004262 23.78090106 28 27 C28.02505615 26.21761963 28.0501123 25.43523926 28.07592773 24.62915039 C28.19149788 21.10675051 28.31439949 17.5846444 28.4375 14.0625 C28.47681641 12.83080078 28.51613281 11.59910156 28.55664062 10.33007812 C28.59853516 9.16025391 28.64042969 7.99042969 28.68359375 6.78515625 C28.72025146 5.70113525 28.75690918 4.61711426 28.79467773 3.50024414 C29 1 29 1 30 0 C32.97 0 35.94 0 39 0 C39 15.18 39 30.36 39 46 C29 46 29 46 26.21240234 43.52148438 C25.46764322 42.40199936 24.75990954 41.2572252 24.0859375 40.09375 C23.70055817 39.49445679 23.31517883 38.89516357 22.91812134 38.27770996 C21.70271196 36.37105648 20.53941569 34.43812343 19.375 32.5 C18.55664137 31.19716788 17.7350554 29.89635705 16.91015625 28.59765625 C14.89491484 25.42273869 12.95315052 22.2169538 11 19 C10.67 27.91 10.34 36.82 10 46 C6.7 46 3.4 46 0 46 C0 30.82 0 15.64 0 0 Z " fill="#0F2640" transform="translate(127,14)"/>
<path d="M0 0 C24.8 0 24.8 0 31 5.8125 C33.89417444 10.42509051 34.28160131 13.21652501 33.4375 18.5625 C31.6128157 22.9258755 29.86191598 24.34493276 26 27 C25.34 27 24.68 27 24 27 C24.30292969 27.50450684 24.60585938 28.00901367 24.91796875 28.52880859 C26.28318269 30.80819079 27.64165783 33.09151668 29 35.375 C29.71542969 36.56609375 29.71542969 36.56609375 30.4453125 37.78125 C30.89648438 38.54179688 31.34765625 39.30234375 31.8125 40.0859375 C32.23144531 40.7876709 32.65039062 41.4894043 33.08203125 42.21240234 C34 44 34 44 34 46 C29.95735733 47.17590177 26.99393317 47.44868105 23 46 C19.09407923 41.5615729 16.58799058 35.9866096 14.08398438 30.67407227 C13.02887838 28.66271234 13.02887838 28.66271234 10 28 C10 33.94 10 39.88 10 46 C6.7 46 3.4 46 0 46 C0 30.82 0 15.64 0 0 Z M10 9 C10 12.96 10 16.92 10 21 C15.93297824 21.3719394 15.93297824 21.3719394 21.5625 19.9375 C23.78375862 16.94362968 23.45864353 14.60362772 23 11 C19.68629 8.79086 18.6553979 8.77518447 14.8125 8.875 C13.224375 8.91625 11.63625 8.9575 10 9 Z " fill="#0D2640" transform="translate(322,14)"/>
<path d="M0 0 C3.63 0 7.26 0 11 0 C15.13916289 10.42110786 19.1097982 20.89779392 22.9375 31.4375 C23.3389624 32.53312256 23.7404248 33.62874512 24.15405273 34.75756836 C24.52473877 35.78503174 24.8954248 36.81249512 25.27734375 37.87109375 C25.60984131 38.78818115 25.94233887 39.70526855 26.28491211 40.65014648 C27 43 27 43 27 46 C23.7 46 20.4 46 17 46 C16.01 43.03 15.02 40.06 14 37 C8.39 37 2.78 37 -3 37 C-3.99 39.97 -4.98 42.94 -6 46 C-9.3 46 -12.6 46 -16 46 C-15.23572896 41.13205888 -13.54860584 36.66261642 -11.875 32.05078125 C-11.56804199 31.19695358 -11.26108398 30.34312592 -10.94482422 29.46342468 C-10.2975499 27.66504399 -9.64858838 25.86726977 -8.99804688 24.07006836 C-8.00018558 21.31301275 -7.00746393 18.55414903 -6.015625 15.79492188 C-5.38571499 14.04676748 -4.75551664 12.29871694 -4.125 10.55078125 C-3.82706543 9.7237117 -3.52913086 8.89664215 -3.22216797 8.04450989 C-1.11702439 2.23404877 -1.11702439 2.23404877 0 0 Z M5 13 C4.16280617 15.29032311 3.3301071 17.58210957 2.5 19.875 C2.26152344 20.52597656 2.02304687 21.17695312 1.77734375 21.84765625 C0.45122467 25.33457589 0.45122467 25.33457589 0 29 C3.63 29 7.26 29 11 29 C10.54625 27.288125 10.0925 25.57625 9.625 23.8125 C9.36976563 22.84957031 9.11453125 21.88664062 8.8515625 20.89453125 C8.05233704 18.17789793 7.0968638 15.60862825 6 13 C5.67 13 5.34 13 5 13 Z " fill="#0E2640" transform="translate(376,14)"/>
<path d="M0 0 C3.89309368 -0.7728936 7.1389135 -1.02220114 11 0 C14.44038334 3.56344526 19 8.80683696 19 14 C19.66 14 20.32 14 21 14 C21.2784375 13.27425781 21.556875 12.54851563 21.84375 11.80078125 C23.66159033 7.39743153 25.50137157 3.31449009 29 0 C32.45632748 -0.76348726 35.52199285 -0.55675609 39 0 C38.37024126 3.20735494 37.24234512 5.45853514 35.4609375 8.1875 C34.96335938 8.96867187 34.46578125 9.74984375 33.953125 10.5546875 C32.89873852 12.18846458 31.83880661 13.81867577 30.7734375 15.4453125 C30.2784375 16.22648437 29.7834375 17.00765625 29.2734375 17.8125 C28.81372559 18.52019531 28.35401367 19.22789063 27.88037109 19.95703125 C26.82972306 21.94049679 26.82972306 21.94049679 27.20141602 24.01147461 C28.08943221 26.22269195 29.16665868 28.0310227 30.50390625 30.00390625 C30.99697266 30.74447266 31.49003906 31.48503906 31.99804688 32.24804688 C33.0440532 33.79550941 34.09093356 35.34238149 35.13867188 36.88867188 C35.63044922 37.62794922 36.12222656 38.36722656 36.62890625 39.12890625 C37.3106189 40.13546265 37.3106189 40.13546265 38.00610352 41.16235352 C39 43 39 43 39 46 C35.07730584 46.84366768 31.88240803 47.12452448 28 46 C24.54710348 42.02084553 22.26892989 37.73289673 20 33 C17.24469134 35.41089508 16.05351529 37.90522532 14.5 41.1875 C12.9609375 43.87890625 12.9609375 43.87890625 11 46 C7.20323215 46.8733612 3.82589069 46.61268712 0 46 C1.26705319 42.63584449 2.71113193 39.62968211 4.6015625 36.57421875 C5.09140625 35.77822266 5.58125 34.98222656 6.0859375 34.16210938 C6.59382812 33.34548828 7.10171875 32.52886719 7.625 31.6875 C8.140625 30.85154297 8.65625 30.01558594 9.1875 29.15429688 C10.45487004 27.10068801 11.72578573 25.04936659 13 23 C9.23628587 16.41906789 5.42200142 9.95146938 1.06640625 3.7421875 C0 2 0 2 0 0 Z " fill="#0D253F" transform="translate(206,14)"/>
<path d="M0 0 C8.91 0 17.82 0 27 0 C27 2.64 27 5.28 27 8 C26 9 26 9 22.40234375 9.09765625 C20.91403133 9.0909822 19.42573568 9.07902183 17.9375 9.0625 C16.79958008 9.05573242 16.79958008 9.05573242 15.63867188 9.04882812 C13.75908129 9.0370068 11.87953101 9.01907078 10 9 C10 12.3 10 15.6 10 19 C14.95 19 19.9 19 25 19 C25 21.64 25 24.28 25 27 C20.05 27 15.1 27 10 27 C10 30.63 10 34.26 10 38 C11.485 37.505 11.485 37.505 13 37 C15.20670414 36.90550637 17.41627905 36.87010261 19.625 36.875 C20.79289062 36.87242188 21.96078125 36.86984375 23.1640625 36.8671875 C26 37 26 37 27 38 C27 40.64 27 43.28 27 46 C18.09 46 9.18 46 0 46 C0 30.82 0 15.64 0 0 Z " fill="#0E2641" transform="translate(288,14)"/>
<path d="M0 0 C4.269375 -0.020625 8.53875 -0.04125 12.9375 -0.0625 C14.95991821 -0.07615601 14.95991821 -0.07615601 17.02319336 -0.09008789 C18.6030603 -0.09383423 18.6030603 -0.09383423 20.21484375 -0.09765625 C21.84087524 -0.10551147 21.84087524 -0.10551147 23.49975586 -0.11352539 C26 0 26 0 27 1 C27.125 4.5 27.125 4.5 27 8 C26 9 26 9 22.40234375 9.09765625 C20.91403133 9.0909822 19.42573568 9.07902183 17.9375 9.0625 C16.79958008 9.05573242 16.79958008 9.05573242 15.63867188 9.04882812 C13.75908129 9.0370068 11.87953101 9.01907078 10 9 C10 12.3 10 15.6 10 19 C14.95 19 19.9 19 25 19 C25 21.64 25 24.28 25 27 C20.05 27 15.1 27 10 27 C10 30.63 10 34.26 10 38 C11.485 37.505 11.485 37.505 13 37 C15.20670414 36.90550637 17.41627905 36.87010261 19.625 36.875 C20.79289062 36.87242188 21.96078125 36.86984375 23.1640625 36.8671875 C26 37 26 37 27 38 C27 40.64 27 43.28 27 46 C18.09 46 9.18 46 0 46 C0 30.82 0 15.64 0 0 Z " fill="#0D2641" transform="translate(174,14)"/>
<path d="M0 0 C4.61240813 3.2861296 7.59488044 7.1586627 10.875 11.6875 C11.92893654 13.12164593 12.98362046 14.55524291 14.0390625 15.98828125 C14.54469727 16.67744629 15.05033203 17.36661133 15.57128906 18.07666016 C17.9283244 21.24971627 20.40152325 24.32854534 22.890625 27.3984375 C24 29 24 29 24 31 C19.42872198 31.19886761 14.8599965 31.34341878 10.28540039 31.43945312 C8.73221961 31.47950603 7.17933715 31.53397031 5.62719727 31.60351562 C-7.15886756 32.16175152 -7.15886756 32.16175152 -11.65576172 29.32421875 C-13.59242997 27.24945763 -14.95753499 25.64062795 -16 23 C-15.69761088 19.94238916 -14.5383817 18.082371 -12.63671875 15.72265625 C-12.16169922 15.12646484 -11.68667969 14.53027344 -11.19726562 13.91601562 C-10.69904297 13.30435547 -10.20082031 12.69269531 -9.6875 12.0625 C-9.20087891 11.45470703 -8.71425781 10.84691406 -8.21289062 10.22070312 C-6.81430984 8.47577124 -5.40759998 6.7376579 -4 5 C-2.66585737 3.33398109 -1.33217534 1.6675924 0 0 Z " fill="#0D2641" transform="translate(92,75)"/>
<path d="M0 0 C4.68139254 -0.02465288 9.36274759 -0.04283739 14.04418945 -0.05493164 C15.63794614 -0.05997157 17.23169819 -0.0668035 18.82543945 -0.07543945 C21.11150253 -0.08751999 23.39750467 -0.09323155 25.68359375 -0.09765625 C26.40026718 -0.10281754 27.11694061 -0.10797882 27.85533142 -0.11329651 C29.57063672 -0.11349263 31.28581266 -0.06192007 33 0 C34 1 34 1 34.125 4.5 C34 8 34 8 33 9 C29.37 9 25.74 9 22 9 C22 21.21 22 33.42 22 46 C18.7 46 15.4 46 12 46 C12 33.79 12 21.58 12 9 C8.37 9 4.74 9 1 9 C0 8 0 8 -0.09765625 6.15234375 C-0.06510417 4.1015625 -0.03255208 2.05078125 0 0 Z " fill="#0E2540" transform="translate(249,14)"/>
<path d="M0 0 C12.77777778 0 12.77777778 0 18 3 C20.4915904 6.7373856 20.45793285 8.57331583 20 13 C18 15.9375 18 15.9375 16 18 C16.99 19.6396875 16.99 19.6396875 18 21.3125 C19.58464929 23.93707538 20 24.8256378 20 28 C17.375 28.5625 17.375 28.5625 14 28 C11.30767599 24.99842256 8 21.17107607 8 17 C7.34 17 6.68 17 6 17 C6 20.63 6 24.26 6 28 C4.02 28 2.04 28 0 28 C0 18.76 0 9.52 0 0 Z M6 6 C6 8.31 6 10.62 6 13 C9.465 12.505 9.465 12.505 13 12 C14.01111093 8.95086772 14.01111093 8.95086772 13 6 C10.69 6 8.38 6 6 6 Z " fill="#0F253E" transform="translate(257,73)"/>
<path d="M0 0 C1.134375 0.020625 2.26875 0.04125 3.4375 0.0625 C4.94526616 4.16385565 6.44237576 8.26902067 7.9375 12.375 C8.36675781 13.54224609 8.79601562 14.70949219 9.23828125 15.91210938 C9.64433594 17.03037109 10.05039062 18.14863281 10.46875 19.30078125 C10.84580078 20.33243408 11.22285156 21.36408691 11.61132812 22.42700195 C12.4375 25.0625 12.4375 25.0625 12.4375 28.0625 C10.4575 28.0625 8.4775 28.0625 6.4375 28.0625 C6.21320313 27.41796875 5.98890625 26.7734375 5.7578125 26.109375 C4.60860544 23.81861148 4.60860544 23.81861148 2.0546875 23.453125 C0.69730469 23.38351563 0.69730469 23.38351563 -0.6875 23.3125 C-1.59757812 23.25578125 -2.50765625 23.1990625 -3.4453125 23.140625 C-4.49332031 23.10195312 -4.49332031 23.10195312 -5.5625 23.0625 C-5.8925 24.7125 -6.2225 26.3625 -6.5625 28.0625 C-8.8725 28.0625 -11.1825 28.0625 -13.5625 28.0625 C-11.75930404 21.62477407 -9.65045184 15.30618522 -7.4375 9 C-7.17179199 8.2376001 -6.90608398 7.4752002 -6.63232422 6.68969727 C-4.29185516 0.0752957 -4.29185516 0.0752957 0 0 Z M-0.5625 9.0625 C-1.5525 12.0325 -2.5425 15.0025 -3.5625 18.0625 C-1.5825 18.0625 0.3975 18.0625 2.4375 18.0625 C1.7775 15.0925 1.1175 12.1225 0.4375 9.0625 C0.1075 9.0625 -0.2225 9.0625 -0.5625 9.0625 Z " fill="#0D243C" transform="translate(343.5625,72.9375)"/>
<path d="M0 0 C2.71113969 1.72527071 4.18398764 2.96597803 5.75 5.75 C5.75 6.74 5.75 7.73 5.75 8.75 C2.9375 8.9375 2.9375 8.9375 -0.25 8.75 C-1.25 7.75 -2.25 6.75 -3.25 5.75 C-7.32794425 5.32521414 -8.78076119 5.43717413 -12.25 7.75 C-13.08572001 11.22145233 -13.60698727 13.70649876 -12.4375 17.125 C-11.33014273 18.90088244 -11.33014273 18.90088244 -9.25 19.75 C-6.29195427 20.08340471 -6.29195427 20.08340471 -3.25 19.75 C-2.755 19.255 -2.26 18.76 -1.75 18.25 C-0.25 16.75 -0.25 16.75 2.9375 16.5625 C4.3296875 16.6553125 4.3296875 16.6553125 5.75 16.75 C5.45540991 20.28508103 5.00118587 21.51203444 2.375 24 C-1.89658064 26.84772043 -5.18828278 27.09316727 -10.25 26.75 C-13.98339564 25.43233095 -15.93314341 24.09187159 -18.625 21.1875 C-20.80656488 16.57265121 -21.04997224 12.77023393 -20.25 7.75 C-18.43766463 3.91621364 -16.94973473 2.21648982 -13.4375 -0.125 C-8.48700198 -1.8722346 -4.90679288 -1.88722803 0 0 Z " fill="#0F253E" transform="translate(318.25,74.25)"/>
<path d="M0 0 C3.01845478 1.98943611 4.24624275 3.5543593 5.75 6.8125 C5.75 7.4725 5.75 8.1325 5.75 8.8125 C2.4375 9 2.4375 9 -1.25 8.8125 C-1.724375 8.3175 -2.19875 7.8225 -2.6875 7.3125 C-4.71352076 5.36752007 -5.68218429 5.61054904 -8.4375 5.625 C-9.695625 5.686875 -10.95375 5.74875 -12.25 5.8125 C-13.50650531 9.58201592 -13.67697465 12.87119551 -13.25 16.8125 C-12.41666667 18.97916667 -12.41666667 18.97916667 -10.25 19.8125 C-7.53114681 20.04309307 -4.99008408 19.94725823 -2.25 19.8125 C-1.92 18.8225 -1.59 17.8325 -1.25 16.8125 C0.73 16.8125 2.71 16.8125 4.75 16.8125 C5.08 17.4725 5.41 18.1325 5.75 18.8125 C4.32991771 22.07033584 3.02068331 23.62994614 0.0625 25.625 C-3.90232223 27.04635136 -7.09075044 27.56797248 -11.25 26.8125 C-15.09324769 24.78210499 -18.20120023 22.6944364 -20.25 18.8125 C-21.63242317 12.78908476 -21.43456076 9.33240532 -18.25 3.8125 C-12.76686237 -1.39648075 -7.20804192 -2.63370762 0 0 Z " fill="#0F243C" transform="translate(218.25,74.1875)"/>
<path d="M0 0 C2.625 2.375 2.625 2.375 4 5 C3.67 5.99 3.34 6.98 3 8 C0.6875 8.1875 0.6875 8.1875 -2 8 C-3.02019573 7.0206121 -4.02149805 6.02104551 -5 5 C-6.32 5 -7.64 5 -9 5 C-7.99577532 7.61425881 -7.39558653 8.78080373 -4.90625 10.16015625 C-4.1121875 10.45792969 -3.318125 10.75570312 -2.5 11.0625 C1.03352912 12.39904592 1.80872588 12.71308882 4 16 C4.375 18.9375 4.375 18.9375 4 22 C2.1329009 24.30275556 0.64352259 25.67823871 -2 27 C-6.99691647 27.37712577 -9.99067725 27.09290612 -14 24 C-16 21 -16 21 -16 18 C-12.625 17.8125 -12.625 17.8125 -9 18 C-8.34 18.99 -7.68 19.98 -7 21 C-5.68 20.67 -4.36 20.34 -3 20 C-3.33 19.01 -3.66 18.02 -4 17 C-6.26044171 15.86321671 -6.26044171 15.86321671 -8.9375 15 C-13.78193146 13.3271028 -13.78193146 13.3271028 -16 10 C-15.67425569 3.91943958 -15.67425569 3.91943958 -13.625 1.125 C-9.38493109 -1.81043232 -4.76710342 -1.27122758 0 0 Z " fill="#10253C" transform="translate(399,74)"/>
<path d="M0 0 C5.28 0 10.56 0 16 0 C16 1.98 16 3.96 16 6 C12.7 6 9.4 6 6 6 C6 7.65 6 9.3 6 11 C8.97 11 11.94 11 15 11 C15 12.65 15 14.3 15 16 C12.03 16 9.06 16 6 16 C6 17.98 6 19.96 6 22 C6.63808594 21.98839844 7.27617187 21.97679688 7.93359375 21.96484375 C8.75988281 21.95582031 9.58617187 21.94679688 10.4375 21.9375 C11.26121094 21.92589844 12.08492187 21.91429688 12.93359375 21.90234375 C15 22 15 22 16 23 C16 24.65 16 26.3 16 28 C10.72 28 5.44 28 0 28 C0 18.76 0 9.52 0 0 Z " fill="#0E253E" transform="translate(130,73)"/>
<path d="M0 0 C5.28 0 10.56 0 16 0 C16 1.98 16 3.96 16 6 C12.7 6 9.4 6 6 6 C6 7.65 6 9.3 6 11 C8.97 11 11.94 11 15 11 C15 12.65 15 14.3 15 16 C12.03 16 9.06 16 6 16 C6 17.98 6 19.96 6 22 C6.63808594 21.98839844 7.27617187 21.97679688 7.93359375 21.96484375 C8.75988281 21.95582031 9.58617187 21.94679688 10.4375 21.9375 C11.26121094 21.92589844 12.08492187 21.91429688 12.93359375 21.90234375 C15 22 15 22 16 23 C16 24.65 16 26.3 16 28 C10.72 28 5.44 28 0 28 C0 18.76 0 9.52 0 0 Z " fill="#0F253D" transform="translate(175,73)"/>
<path d="M0 0 C2.97 0.495 2.97 0.495 6 1 C5.01 1.33 4.02 1.66 3 2 C2.00775394 6.94866714 1.86368547 11.64764522 1.88647461 16.66748047 C1.88625557 17.94163567 1.88625557 17.94163567 1.8860321 19.24153137 C1.88672563 22.03344323 1.89449174 24.82528737 1.90234375 27.6171875 C1.90420992 29.55917321 1.90563288 31.5011594 1.90663147 33.44314575 C1.91044098 38.54273794 1.92025786 43.64230144 1.93133545 48.74188232 C1.94158327 53.95031344 1.94613631 59.1587492 1.95117188 64.3671875 C1.96188157 74.5781396 1.97946566 84.78906292 2 95 C9.59 95 17.18 95 25 95 C25.33 84.44 25.66 73.88 26 63 C26.33 63 26.66 63 27 63 C27 74.22 27 85.44 27 97 C18.09 97 9.18 97 0 97 C0 64.99 0 32.98 0 0 Z " fill="#112138" transform="translate(11,9)"/>
<path d="M0 0 C6.6 0 13.2 0 20 0 C20 1.98 20 3.96 20 6 C17.69 6 15.38 6 13 6 C13 13.26 13 20.52 13 28 C11.02 28 9.04 28 7 28 C7 20.74 7 13.48 7 6 C4.69 6 2.38 6 0 6 C0 4.02 0 2.04 0 0 Z " fill="#11243D" transform="translate(230,73)"/>
<path d="M0 0 C1.65 0 3.3 0 5 0 C6 1 6 1 6.11352539 3.13305664 C6.10828857 4.04949951 6.10305176 4.96594238 6.09765625 5.91015625 C6.09443359 6.89951172 6.09121094 7.88886719 6.08789062 8.90820312 C6.07951172 9.94912109 6.07113281 10.99003906 6.0625 12.0625 C6.05798828 13.10728516 6.05347656 14.15207031 6.04882812 15.22851562 C6.03699913 17.8190666 6.02051689 20.40950559 6 23 C8.97 23 11.94 23 15 23 C14.67 24.65 14.34 26.3 14 28 C9.38 28 4.76 28 0 28 C0 18.76 0 9.52 0 0 Z " fill="#0D2640" transform="translate(363,73)"/>
<path d="M0 0 C1.65 0 3.3 0 5 0 C6 1 6 1 6.11352539 3.13305664 C6.10828857 4.04949951 6.10305176 4.96594238 6.09765625 5.91015625 C6.09443359 6.89951172 6.09121094 7.88886719 6.08789062 8.90820312 C6.07951172 9.94912109 6.07113281 10.99003906 6.0625 12.0625 C6.05798828 13.10728516 6.05347656 14.15207031 6.04882812 15.22851562 C6.03699913 17.8190666 6.02051689 20.40950559 6 23 C8.64 23 11.28 23 14 23 C14 24.65 14 26.3 14 28 C9.38 28 4.76 28 0 28 C0 18.76 0 9.52 0 0 Z " fill="#0E253E" transform="translate(154,73)"/>
<path d="M0 0 C1.98 0 3.96 0 6 0 C6 8.91 6 17.82 6 27 C4.02 27 2.04 27 0 27 C0 18.09 0 9.18 0 0 Z " fill="#0F243B" transform="translate(285,74)"/>
<path d="M0 0 C0.33 0 0.66 0 1 0 C1 1.98 1 3.96 1 6 C0.34 6 -0.32 6 -1 6 C-1 7.98 -1 9.96 -1 12 C0.32 12.66 1.64 13.32 3 14 C3 12.35 3 10.7 3 9 C3.66 8.67 4.32 8.34 5 8 C5 8.99 5 9.98 5 11 C5.66 11.33 6.32 11.66 7 12 C5.78763672 13.50240234 5.78763672 13.50240234 4.55078125 15.03515625 C3.47125463 16.37752413 2.39183316 17.71997657 1.3125 19.0625 C0.78205078 19.71927734 0.25160156 20.37605469 -0.29492188 21.05273438 C-2.90286419 24.30066253 -5.41254525 27.56058973 -7.76953125 30.99609375 C-8.87361328 32.48302734 -8.87361328 32.48302734 -10 34 C-10.66 34 -11.32 34 -12 34 C-9.8298389 26.30040211 -7.15907228 18.84781973 -4.3125 11.375 C-3.89677734 10.27542969 -3.48105469 9.17585938 -3.05273438 8.04296875 C-2.03818089 5.36081585 -1.02055394 2.67987417 0 0 Z " fill="#DF6133" transform="translate(72,75)"/>
<path d="M0 0 C8.58 0 17.16 0 26 0 C23.75 5.625 23.75 5.625 21 8 C21.66 6.02 22.32 4.04 23 2 C15.41 2.33 7.82 2.66 0 3 C0 3.99 0 4.98 0 6 C-0.66 6 -1.32 6 -2 6 C-1.34 4.02 -0.68 2.04 0 0 Z " fill="#DB6A41" transform="translate(87,9)"/>
<path d="M0 0 C2.5654594 2.5654594 2.54046087 4.47686668 3 8 C2.34 8 1.68 8 1 8 C1.33 8.99 1.66 9.98 2 11 C1.01 11.495 1.01 11.495 0 12 C0 13.98 0 15.96 0 18 C-1.65 17.67 -3.3 17.34 -5 17 C-4.67 14.69 -4.34 12.38 -4 10 C-3.34 10 -2.68 10 -2 10 C-2.04125 9.0925 -2.0825 8.185 -2.125 7.25 C-2.00468444 4.1217954 -1.6085292 2.61385994 0 0 Z " fill="#F3591F" transform="translate(75,71)"/>
<path d="M0 0 C3.63 0 7.26 0 11 0 C11 0.99 11 1.98 11 3 C10.67 2.67 10.34 2.34 10 2 C7.67182036 1.63239269 5.3381615 1.29758419 3 1 C3.5775 1.639375 4.155 2.27875 4.75 2.9375 C8.14204697 7.55445282 10.12182057 12.65818819 12.125 18 C12.82394929 20.17871814 12.82394929 20.17871814 15 21 C14.01 21 13.02 21 12 21 C10.55786133 19.28759766 10.55786133 19.28759766 9.08203125 16.9140625 C8.55029297 16.06585937 8.01855469 15.21765625 7.47070312 14.34375 C6.92349609 13.4465625 6.37628906 12.549375 5.8125 11.625 C5.25369141 10.73554688 4.69488281 9.84609375 4.11914062 8.9296875 C0 2.29077953 0 2.29077953 0 0 Z " fill="#16273C" transform="translate(206,14)"/>
<path d="M0 0 C6.27 0.33 12.54 0.66 19 1 C19 2.65 19 4.3 19 6 C18.34 6 17.68 6 17 6 C17.33 8.97 17.66 11.94 18 15 C17.01 15 16.02 15 15 15 C14.01 15.495 14.01 15.495 13 16 C13.63156995 10.94744036 15.13459373 6.70406799 17 2 C11.39 2 5.78 2 0 2 C0 1.34 0 0.68 0 0 Z " fill="#D66C40" transform="translate(60,59)"/>
<path d="M0 0 C4.95 0 9.9 0 15 0 C15 2.64 15 5.28 15 8 C10.05 8 5.1 8 0 8 C0 7.67 0 7.34 0 7 C3.63 7 7.26 7 11 7 C11 5.02 11 3.04 11 1 C7.37 1 3.74 1 0 1 C0 0.67 0 0.34 0 0 Z " fill="#17293C" transform="translate(184,33)"/>
<path d="M0 0 C1.65 0 3.3 0 5 0 C5.33 1.65 5.66 3.3 6 5 C5.34 4.67 4.68 4.34 4 4 C3.34 4 2.68 4 2 4 C2.01047363 4.65597168 2.02094727 5.31194336 2.03173828 5.98779297 C2.07322503 8.95015658 2.09930262 11.91245916 2.125 14.875 C2.15013672 16.42380859 2.15013672 16.42380859 2.17578125 18.00390625 C2.18222656 18.99003906 2.18867188 19.97617188 2.1953125 20.9921875 C2.20578613 21.90339355 2.21625977 22.81459961 2.22705078 23.75341797 C2 26 2 26 0 28 C0 18.76 0 9.52 0 0 Z " fill="#1A293A" transform="translate(363,73)"/>
<path d="M0 0 C2.97 0 5.94 0 9 0 C9 1.65 9 3.3 9 5 C6.03 5 3.06 5 0 5 C0 3.35 0 1.7 0 0 Z " fill="#13243C" transform="translate(136,84)"/>
<path d="M0 0 C0.99 0.33 1.98 0.66 3 1 C2.06398754 2.41764994 1.1261208 3.83407568 0.1875 5.25 C-0.33457031 6.03890625 -0.85664062 6.8278125 -1.39453125 7.640625 C-4.5139589 12.22489337 -4.5139589 12.22489337 -6 14 C-6.66 14 -7.32 14 -8 14 C-7.54965877 12.37276701 -7.08944646 10.74826336 -6.625 9.125 C-6.24214844 7.76761719 -6.24214844 7.76761719 -5.8515625 6.3828125 C-5 4 -5 4 -3 2 C-3 2.99 -3 3.98 -3 5 C-2.34 4.67 -1.68 4.34 -1 4 C-0.34786708 1.97536745 -0.34786708 1.97536745 0 0 Z " fill="#D8663E" transform="translate(68,95)"/>
<path d="M0 0 C0.99 0.33 1.98 0.66 3 1 C2.76953125 2.890625 2.76953125 2.890625 2 5 C0.07421875 6.046875 0.07421875 6.046875 -2.3125 6.75 C-3.48232422 7.11351563 -3.48232422 7.11351563 -4.67578125 7.484375 C-7 8 -7 8 -11 8 C-10.67 6.68 -10.34 5.36 -10 4 C-7.36 4 -4.72 4 -2 4 C-1.34 2.68 -0.68 1.36 0 0 Z " fill="#0B2443" transform="translate(399,91)"/>
<path d="M0 0 C5.61 0 11.22 0 17 0 C15.04783565 3.90432869 13.12613393 6.03839944 10 9 C9.67 8.01 9.34 7.02 9 6 C9.66 4.68 10.32 3.36 11 2 C7.37 1.67 3.74 1.34 0 1 C0 0.67 0 0.34 0 0 Z " fill="#E1673E" transform="translate(94,44)"/>
<path d="M0 0 C0.99 0.33 1.98 0.66 3 1 C2.67 1.99 2.34 2.98 2 4 C2.66 4.33 3.32 4.66 4 5 C3.01 6.485 3.01 6.485 2 8 C-0.625 8.1875 -0.625 8.1875 -3 8 C-3 8.99 -3 9.98 -3 11 C-3.66 11 -4.32 11 -5 11 C-3.77472971 6.94718288 -2.30119506 3.55639236 0 0 Z " fill="#E65F2D" transform="translate(84,15)"/>
<path d="M0 0 C0 4.09459203 -1.96927276 6.76750835 -4 10.1875 C-4.57234375 11.16879883 -4.57234375 11.16879883 -5.15625 12.16992188 C-6.09838932 13.78333545 -7.04844266 15.39212298 -8 17 C-9.08784335 13.68604014 -9.07262544 13.16419665 -7.5625 9.75 C-7.046875 8.8425 -6.53125 7.935 -6 7 C-5.34 7 -4.68 7 -4 7 C-4 6.01 -4 5.02 -4 4 C-3.34 4 -2.68 4 -2 4 C-1.34 2.68 -0.68 1.36 0 0 Z " fill="#DA6941" transform="translate(101,27)"/>
<path d="M0 0 C0.5625 1.9375 0.5625 1.9375 1 4 C0 5 0 5 -2.94140625 5.09765625 C-4.73384766 5.08025391 -4.73384766 5.08025391 -6.5625 5.0625 C-8.35880859 5.04896484 -8.35880859 5.04896484 -10.19140625 5.03515625 C-11.11824219 5.02355469 -12.04507812 5.01195313 -13 5 C-12.67 4.01 -12.34 3.02 -12 2 C-8.37 2 -4.74 2 -1 2 C-0.67 1.34 -0.34 0.68 0 0 Z " fill="#102135" transform="translate(377,96)"/>
<path d="M0 0 C0.33 0.99 0.66 1.98 1 3 C1.66 3.33 2.32 3.66 3 4 C0.69 6.97 -1.62 9.94 -4 13 C-4.33 11.68 -4.66 10.36 -5 9 C-4.34 9 -3.68 9 -3 9 C-3 8.01 -3 7.02 -3 6 C-2.34 6 -1.68 6 -1 6 C-1.020625 5.195625 -1.04125 4.39125 -1.0625 3.5625 C-1 1 -1 1 0 0 Z " fill="#D7602F" transform="translate(76,83)"/>
<path d="M0 0 C0.99 0.33 1.98 0.66 3 1 C2.67 1.99 2.34 2.98 2 4 C1.34 3.67 0.68 3.34 0 3 C-0.33 4.65 -0.66 6.3 -1 8 C-1.66 8 -2.32 8 -3 8 C-3.33 6.68 -3.66 5.36 -4 4 C-3.01 4 -2.02 4 -1 4 C-0.67 2.68 -0.34 1.36 0 0 Z " fill="#F25622" transform="translate(68,92)"/>
<path d="M0 0 C2 3 2 3 2 6 C0.02 6 -1.96 6 -4 6 C-4.66 4.35 -5.32 2.7 -6 1 C-3 2 -3 2 0 4 C0 2.68 0 1.36 0 0 Z " fill="#152537" transform="translate(354,95)"/>
<path d="M0 0 C1.98 0 3.96 0 6 0 C5.67 1.65 5.34 3.3 5 5 C4.01 5 3.02 5 2 5 C2 4.34 2 3.68 2 3 C1.34 2.67 0.68 2.34 0 2 C0 1.34 0 0.68 0 0 Z " fill="#0B1E35" transform="translate(318,91)"/>
<path d="M0 0 C0.37125 0.495 0.7425 0.99 1.125 1.5 C3.74694393 3.59755514 5.73842472 3.21743835 9 3 C9 3.66 9 4.32 9 5 C5.7 5 2.4 5 -1 5 C-0.67 3.35 -0.34 1.7 0 0 Z " fill="#162A41" transform="translate(361,55)"/>
<path d="M0 0 C0.33 0 0.66 0 1 0 C1 2.64 1 5.28 1 8 C-0.98 8 -2.96 8 -5 8 C-4.67 7.01 -4.34 6.02 -4 5 C-3.01 5.33 -2.02 5.66 -1 6 C-0.67 4.02 -0.34 2.04 0 0 Z " fill="#162536" transform="translate(262,93)"/>
<path d="M0 0 C0.33 0.66 0.66 1.32 1 2 C1.66 2.33 2.32 2.66 3 3 C4.24546405 5.49092811 3.7767578 6.41080733 3 9 C2.34 9 1.68 9 1 9 C0.63877119 7.68942607 0.28619689 6.37646376 -0.0625 5.0625 C-0.35833984 3.96615234 -0.35833984 3.96615234 -0.66015625 2.84765625 C-0.77230469 2.23792969 -0.88445313 1.62820312 -1 1 C-0.67 0.67 -0.34 0.34 0 0 Z " fill="#0F2238" transform="translate(62,73)"/>
<path d="M0 0 C4.62 0 9.24 0 14 0 C14.33 0.66 14.66 1.32 15 2 C14.01 3.485 14.01 3.485 13 5 C12.67 4.34 12.34 3.68 12 3 C9.1840151 2.53101037 9.1840151 2.53101037 5.9375 2.375 C4.28041016 2.26285156 4.28041016 2.26285156 2.58984375 2.1484375 C1.73519531 2.09945312 0.88054687 2.05046875 0 2 C0 1.34 0 0.68 0 0 Z " fill="#0E1F34" transform="translate(300,51)"/>
<path d="M0 0 C0.66 0 1.32 0 2 0 C1.5205537 4.21912747 0.83374881 6.79663178 -2 10 C-1.125 2.25 -1.125 2.25 0 0 Z " fill="#2B3544" transform="translate(62,43)"/>
<path d="M0 0 C0.99 0.99 1.98 1.98 3 3 C2.071875 3.4021875 2.071875 3.4021875 1.125 3.8125 C-1.2995233 4.95556848 -1.2995233 4.95556848 -3 8 C-3.66 8 -4.32 8 -5 8 C-3.62845496 5.04590299 -2.01136276 2.55991624 0 0 Z " fill="#202C3F" transform="translate(92,75)"/>
<path d="M0 0 C3 1 3 1 4.75 3.9375 C5.1625 4.948125 5.575 5.95875 6 7 C5.67 7.66 5.34 8.32 5 9 C4.16094435 7.87926138 3.32892169 6.75325453 2.5 5.625 C2.0359375 4.99851562 1.571875 4.37203125 1.09375 3.7265625 C0 2 0 2 0 0 Z " fill="#17293D" transform="translate(146,43)"/>
<path d="M0 0 C0.33 0.99 0.66 1.98 1 3 C3.00016466 4.20882096 3.00016466 4.20882096 5 5 C4.67 6.32 4.34 7.64 4 9 C2.35 6.69 0.7 4.38 -1 2 C-0.67 1.34 -0.34 0.68 0 0 Z " fill="#142839" transform="translate(39,48)"/>
<path d="M0 0 C1.8125 0.1875 1.8125 0.1875 4 1 C5.75 3.5625 5.75 3.5625 7 6 C4.50638429 4.79618552 2.31856917 3.54571278 0 2 C0 1.34 0 0.68 0 0 Z " fill="#112434" transform="translate(33,9)"/>
</svg>
